<svg xmlns="http://www.w3.org/2000/svg" width="128" height="128" aria-label="Candado" viewBox="0 0 128 128"><defs><linearGradient id="b" x1="0" x2="1" y1="0" y2="1"><stop offset="0" stop-color="#f8e7c1"/><stop offset="1" stop-color="#d4af37"/></linearGradient><filter id="a" width="160%" height="160%" x="-30%" y="-30%"><feDropShadow dx="0" dy="6" flood-color="#000" flood-opacity=".35" stdDeviation="10"/></filter></defs><circle cx="64" cy="64" r="60" fill="#0b0b0b"/><g transform="matrix(.75 0 0 .75 32 24)"><g filter="url(#a)"><path fill="url(#b)" d="M40 52a6 6 0 0 0-6 6v14a6 6 0 0 0 6 6h24a6 6 0 0 0 6-6V58a6 6 0 0 0-6-6z"/></g><path fill="none" stroke="#f8e7c1" stroke-linecap="round" stroke-linejoin="round" stroke-width="6" d="M28 52V38a20 20 0 1 1 40 0v14"/><path fill="#081017" d="M52 66a4 4 0 1 1-8 0 4 4 0 0 1 8 0"/><rect width="6" height="8" x="49" y="70" fill="#081017" rx="2"/></g></svg>