<?xml version="1.0" encoding="UTF-8"?>
<svg xmlns="http://www.w3.org/2000/svg" width="560" height="560" viewBox="0 0 560 560" role="img" aria-label="La Guarida Logo">
  <defs>
    <style>
      .mark { fill: #D4AF37 }
    </style>
  </defs>

  <!-- transparent background so header background shows through -->
  <rect x="0" y="0" width="560" height="560" rx="18" fill="transparent" />

  <!-- central logo mark only (no gold frame/background) -->
  <g transform="translate(280,280)">
    <path d="M0,-110 C40,-90 80,-30 68,30 C56,92 0,110 0,110 C0,110 -56,92 -68,30 C-80,-30 -40,-90 0,-110 Z" class="mark" />
    <path d="M0,-80 C22,-65 44,-25 38,25 C33,70 0,85 0,85 C0,85 -33,70 -38,25 C-44,-25 -22,-65 0,-80 Z" fill="#0D0D0D" />
    <text x="0" y="12" text-anchor="middle" font-family="Inter, system-ui, -apple-system, 'Segoe UI', Roboto, 'Helvetica Neue'" font-weight="700" font-size="64" fill="#D4AF37">G</text>
  </g>
</svg>
