<?xml version="1.0" encoding="UTF-8"?>
<svg xmlns="http://www.w3.org/2000/svg" width="560" height="560" viewBox="0 0 560 560" role="img" aria-label="La Guarida Logo">
  <defs>
    <filter id="gold-shadow" x="-30%" y="-30%" width="160%" height="160%">
      <feDropShadow dx="0" dy="6" stdDeviation="8" flood-color="#D4AF37" flood-opacity="0.12"/>
    </filter>
  </defs>

  <!-- transparent rounded background so header color shows through -->
  <rect x="0" y="0" width="560" height="560" rx="18" fill="transparent" />

  <!-- gold frame -->
  <rect x="20" y="20" width="520" height="520" rx="12" fill="none" stroke="#D4AF37" stroke-width="8" filter="url(#gold-shadow)" />

  <!-- central logo mark: stylized guitar pick with 'G' monogram -->
  <g transform="translate(280,280)">
    <!-- pick shape -->
    <path d="M0,-110 C40,-90 80,-30 68,30 C56,92 0,110 0,110 C0,110 -56,92 -68,30 C-80,-30 -40,-90 0,-110 Z" fill="#D4AF37" />
    <!-- inner cut for contrast -->
    <path d="M0,-80 C22,-65 44,-25 38,25 C33,70 0,85 0,85 C0,85 -33,70 -38,25 C-44,-25 -22,-65 0,-80 Z" fill="#0D0D0D" />
    <!-- monogram G -->
    <text x="0" y="12" textAnchor="middle" fontFamily="Inter, system-ui, -apple-system, 'Segoe UI', Roboto, 'Helvetica Neue'" fontWeight="700" fontSize="64" fill="#D4AF37">G</text>
  </g>
</svg>
